<?xml version="1.0" standalone="no"?>
<!DOCTYPE svg PUBLIC "-//W3C//DTD SVG 20010904//EN"
 "http://www.w3.org/TR/2001/REC-SVG-20010904/DTD/svg10.dtd">
<svg version="1.0" xmlns="http://www.w3.org/2000/svg"
 width="300.000000pt" height="300.000000pt" viewBox="0 0 300.000000 300.000000"
 preserveAspectRatio="xMidYMid meet">
<metadata>
Created by potrace 1.10, written by Peter Selinger 2001-2011
</metadata>
<g transform="translate(0.000000,300.000000) scale(0.100000,-0.100000)"
fill="#000000" stroke="none">
<path d="M1240 2195 l0 -255 26 16 25 17 -3 199 c-2 109 -1 197 2 196 3 -2 62
-41 133 -88 l127 -85 0 -217 0 -218 26 0 c20 0 25 4 20 16 -3 9 -6 114 -6 234
l0 218 -52 33 c-29 18 -106 68 -171 111 -65 43 -120 78 -123 78 -2 0 -4 -115
-4 -255z"/>
<path d="M1752 2129 l-104 -71 4 -169 3 -169 -105 0 -105 0 0 -204 0 -205 128
-3 127 -3 0 366 0 365 60 42 60 41 0 -105 0 -104 25 16 c25 16 25 19 25 145 0
71 -3 129 -7 128 -5 0 -54 -32 -111 -70z m-97 -619 l0 -160 -82 0 -83 0 0 160
0 160 83 0 82 0 0 -160z"/>
<path d="M1898 1917 l-148 -101 0 -252 0 -252 25 -4 25 -5 0 247 0 247 100 67
100 66 0 -312 0 -313 115 0 115 0 0 25 c0 25 -1 25 -90 25 l-91 0 1 333 c0
182 -1 332 -2 331 -2 0 -69 -46 -150 -102z"/>
<path d="M1233 1871 l-143 -95 0 -214 0 -213 -160 3 -160 3 0 -25 0 -25 310 3
310 3 0 329 c0 182 -3 329 -7 329 -5 -1 -72 -45 -150 -98z m107 -251 l0 -270
-105 0 -105 0 0 198 0 198 103 71 c56 39 103 71 105 72 1 0 2 -120 2 -269z"/>
<path d="M570 1048 l0 -158 93 0 c107 0 149 16 185 70 20 30 23 45 20 97 -3
52 -9 68 -32 92 -39 41 -67 50 -174 53 l-92 3 0 -157z m163 91 c26 -7 44 -21
57 -42 24 -39 25 -59 5 -97 -19 -37 -38 -47 -103 -56 l-52 -7 0 107 0 106 28
0 c15 0 44 -5 65 -11z"/>
<path d="M920 1048 l0 -158 115 0 115 0 0 28 0 28 -81 -1 -81 0 -3 38 -2 38
74 -3 73 -3 0 30 0 30 -72 0 -71 0 0 35 -1 35 82 0 82 0 0 30 0 30 -115 0
-115 0 0 -157z"/>
<path d="M1210 1049 l0 -159 110 0 110 0 0 29 0 29 -75 -5 -75 -6 0 135 0 134
-35 1 -35 1 0 -159z"/>
<path d="M1530 1188 c-33 -17 -51 -35 -68 -68 -72 -141 74 -287 222 -222 51
23 53 27 30 60 l-15 22 -26 -20 c-83 -65 -199 41 -148 135 28 53 88 70 144 40
26 -13 30 -13 50 9 l22 24 -44 21 c-56 27 -111 27 -167 -1z"/>
<path d="M1790 1048 l0 -158 36 0 36 0 -4 50 -3 50 36 0 c33 0 40 -5 68 -49
27 -41 37 -50 69 -54 20 -2 38 -3 40 -2 1 1 -16 27 -39 58 l-40 57 25 10 c67
25 65 152 -3 179 -14 5 -70 11 -124 13 l-97 3 0 -157z m173 93 c30 -12 42 -43
27 -71 -9 -17 -21 -20 -73 -20 l-62 0 2 47 c1 27 2 49 2 51 2 6 83 1 104 -7z"/>
<path d="M2179 1051 c-35 -85 -65 -158 -67 -161 -1 -3 15 -4 37 -2 34 3 40 8
48 35 9 32 9 32 80 34 l72 2 11 -33 c10 -30 16 -34 51 -38 21 -2 38 -1 37 3
-2 4 -32 76 -67 161 l-63 153 -38 0 -38 0 -63 -154z m111 59 c0 -6 9 -30 20
-52 11 -23 20 -42 20 -43 0 -1 -23 -1 -50 -1 -28 0 -49 2 -48 5 2 4 11 27 22
54 17 43 36 62 36 37z"/>
<path d="M1758 789 c-10 -10 -18 -35 -18 -54 0 -32 2 -35 30 -35 17 0 30 5 30
10 0 6 -9 10 -20 10 -25 0 -26 17 -2 23 16 4 16 5 0 6 -26 2 -22 21 5 22 17 1
18 2 4 6 -14 4 -16 8 -6 19 17 21 -3 15 -23 -7z"/>
<path d="M576 764 c-4 -11 1 -18 14 -21 11 -3 20 -10 20 -15 0 -6 -7 -8 -15
-5 -8 4 -17 2 -20 -3 -7 -11 31 -24 45 -15 16 10 12 45 -5 45 -8 0 -15 4 -15
10 0 5 7 7 15 4 8 -4 15 -1 15 5 0 17 -47 13 -54 -5z"/>
<path d="M672 768 c-17 -17 -15 -32 7 -52 16 -14 23 -15 41 -6 31 17 24 64
-10 68 -14 2 -31 -3 -38 -10z m45 -9 c14 -14 6 -39 -12 -39 -18 0 -28 17 -21
35 6 18 18 19 33 4z"/>
<path d="M772 743 c3 -33 7 -38 31 -41 15 -2 27 1 27 7 0 6 -9 11 -20 11 -16
0 -20 7 -20 30 0 17 -5 30 -11 30 -6 0 -9 -16 -7 -37z"/>
<path d="M860 746 c0 -35 17 -50 45 -40 17 7 21 74 5 74 -5 0 -10 -13 -10 -30
0 -16 -4 -30 -10 -30 -10 0 -14 13 -11 43 1 9 -3 17 -8 17 -6 0 -11 -15 -11
-34z"/>
<path d="M960 765 c-24 -28 9 -72 45 -59 23 9 18 24 -7 21 -17 -1 -23 3 -23
18 0 15 6 19 23 18 12 -2 22 2 22 7 0 15 -46 12 -60 -5z"/>
<path d="M1050 740 c0 -22 5 -40 10 -40 6 0 10 18 10 40 0 22 -4 40 -10 40 -5
0 -10 -18 -10 -40z"/>
<path d="M1117 774 c-15 -15 -6 -54 14 -65 18 -9 25 -7 43 10 16 17 18 25 10
39 -11 18 -55 28 -67 16z m53 -30 c0 -20 -30 -30 -40 -13 -11 17 7 40 26 32 8
-3 14 -12 14 -19z"/>
<path d="M1220 739 c0 -22 4 -38 9 -35 5 3 7 16 4 29 -4 21 -3 20 21 -5 14
-16 28 -28 31 -28 3 0 5 18 5 40 0 41 -20 58 -21 18 l0 -23 -16 23 c-23 33
-33 27 -33 -19z"/>
<path d="M1330 740 c0 -36 3 -40 25 -40 14 0 25 5 25 10 0 6 -9 10 -20 10 -28
0 -25 20 3 21 21 1 21 1 -3 9 l-25 7 25 11 25 11 -27 0 c-26 1 -28 -2 -28 -39z"/>
<path d="M1415 770 c-8 -14 3 -30 21 -30 8 0 14 -5 14 -11 0 -6 -7 -9 -15 -6
-8 4 -17 2 -20 -2 -7 -12 21 -22 40 -15 8 4 15 13 15 20 0 8 -7 17 -15 20 -8
4 -15 10 -15 15 0 4 7 6 15 3 8 -4 15 -1 15 5 0 14 -47 15 -55 1z"/>
<path d="M1562 743 c3 -33 7 -38 31 -41 15 -2 27 1 27 7 0 6 -9 11 -20 11 -27
0 -25 18 3 23 l22 4 -22 2 c-13 0 -23 5 -23 10 0 5 10 12 23 14 15 3 12 5 -11
6 -32 1 -33 0 -30 -36z"/>
<path d="M1660 740 c0 -36 3 -40 25 -40 14 0 25 5 25 10 0 6 -10 10 -21 10
-19 0 -21 4 -15 30 3 17 1 30 -4 30 -6 0 -10 -18 -10 -40z"/>
<path d="M1837 773 c-27 -26 12 -80 47 -67 24 9 19 24 -6 21 -17 -1 -23 3 -23
18 0 15 6 19 23 18 12 -2 22 2 22 7 0 11 -53 14 -63 3z"/>
<path d="M1933 773 c12 -3 17 -15 17 -39 0 -19 5 -34 10 -34 6 0 10 15 10 34
0 19 6 37 13 39 6 3 -6 5 -28 5 -22 0 -32 -2 -22 -5z"/>
<path d="M2020 740 c0 -22 5 -40 10 -40 6 0 10 7 10 15 0 8 4 15 9 15 5 0 11
-7 15 -15 3 -8 10 -15 16 -15 7 0 8 6 1 18 -7 13 -7 22 1 30 16 16 0 32 -33
32 -27 0 -29 -2 -29 -40z"/>
<path d="M2120 740 c0 -22 5 -40 10 -40 6 0 10 18 10 40 0 22 -4 40 -10 40 -5
0 -10 -18 -10 -40z"/>
<path d="M2182 768 c-7 -7 -12 -17 -12 -23 0 -20 36 -46 54 -39 23 9 20 27 -4
19 -14 -4 -22 -1 -27 10 -7 19 13 36 34 28 7 -3 13 0 13 6 0 15 -43 14 -58 -1z"/>
<path d="M2284 744 c-8 -20 -12 -39 -8 -43 4 -3 9 0 11 7 3 6 13 12 23 12 10
0 20 -6 23 -12 2 -7 7 -10 11 -7 9 8 -22 79 -35 79 -5 0 -17 -16 -25 -36z"/>
<path d="M2375 770 c-8 -14 3 -30 21 -30 8 0 14 -5 14 -11 0 -6 -7 -9 -15 -6
-8 4 -17 2 -20 -2 -7 -12 21 -22 40 -15 22 9 18 29 -7 48 l-23 17 23 -6 c12
-4 22 -2 22 4 0 14 -47 14 -55 1z"/>
</g>
</svg>
